<?xml version="1.0" encoding="UTF-8"?>
<!DOCTYPE svg PUBLIC "-//W3C//DTD SVG 1.1//EN" 
"http://www.w3.org/Graphics/SVG/1.1/DTD/svg11.dtd">
<svg width="1000" height="950" version="1.1" xmlns="http://www.w3.org/2000/svg" xmlns:xlink="http://www.w3.org/1999/xlink">
<defs>
<marker id="arrow" viewBox="0 0 12 12" markerWidth="3" markerHeight="3" refX="0" refY="6" orient="auto" markerUnits="strokeWidth">
<path d="M0 6 L0 10 L8 6 L0 2 Z"/>
</marker>
<style type="">
    .AxesLabel{
      font-weight:bold;
      font-size:20pt;
    }
    </style>
</defs>
<text  x="300" y="50" font-size="20pt" font-family="SimHei">最大光强下光电池输出电流、功率与电压的关系</text>

<g transform="translate(100,50)">

<rect x="650" y="50" width="140" height="70" style="fill:#ffffff;stroke-width:2;stroke:#000000"></rect>
<line x1="660" y1="70" x2="720" y2="70" stroke="#0000ff" stroke-width="2"/>
<line x1="660" y1="100" x2="720" y2="100" stroke="#f8851d" stroke-width="2"/>
<text x="730" y="75" font-size="20" fill="black">I(U)</text>
<text x="730" y="105" font-size="20" fill="black">P(U)</text>

<line x1="50" y1="850" x2="50" y2="50" stroke="black" stroke-width="5" marker-end="url(#arrow)"/>
<line x1="50" y1="850" x2="850" y2="850" stroke="black" stroke-width="5" marker-end="url(#arrow)"/>
<line x1="850" y1="850" x2="850" y2="50" stroke="black" stroke-width="5" marker-end="url(#arrow)"/>
<g transform="translate(30,0)">
<polyline stroke="#0000ff" fill="none" points="802.444,842.222 800.000,837.111 792.222,811.889 789.333,802.667 782.444,787.556 755.556,731.556 726.667,682.000 638.444,546.667 602.889,493.333 552.222,418.889 406.000,235.556 188.000,103.333 145.111,92.222 101.111,77.778 53.333,58.889 39.333,57.778"/>
</g>
  <polyline stroke="#f8851d" fill="none" points="832.444,830.282 830.000,817.427 822.222,754.646 819.333,732.015 812.444,695.742 785.556,567.723 756.667,465.347 668.444,242.193 632.889,176.414 582.222,106.592 436.000,81.551 218.000,443.574 175.111,542.827 131.111,647.060 83.333,764.560 69.333,800.375"/>
<text  x="0" y="435" class="AxesLabel" transform="rotate(-90,0,435)">I/mA</text>
<text  x="830" y="435" class="AxesLabel" transform="rotate(-90,830,435)">P/mW</text>
  <g>
  <text x="855" y="60" font-size="15" fill="navy">10.0</text>
  <text x="855" y="110" font-size="15" fill="navy">9.375</text>
  <text x="855" y="160" font-size="15" fill="navy">8.75</text>
  <text x="855" y="210" font-size="15" fill="navy">8.125</text>
  <text x="855" y="260" font-size="15" fill="navy">7.5</text>
  <text x="855" y="310" font-size="15" fill="navy">6.875</text>
  <text x="855" y="360" font-size="15" fill="navy">6.25</text>
  <text x="855" y="410" font-size="15" fill="navy">5.625</text>
  <text x="855" y="460" font-size="15" fill="navy">5.0</text>
  <text x="855" y="510" font-size="15" fill="navy">4.375</text>
  <text x="855" y="560" font-size="15" fill="navy">3.75</text>
  <text x="855" y="610" font-size="15" fill="navy">3.125</text>
  <text x="855" y="660" font-size="15" fill="navy">2.5</text>
  <text x="855" y="710" font-size="15" fill="navy">1.875</text>
  <text x="855" y="760" font-size="15" fill="navy">1.25</text>
  <text x="855" y="810" font-size="15" fill="navy">0.625</text>
</g>
  <g>
  <text x="15" y="60" font-size="15" fill="navy">7.2</text>
  <text x="15" y="110" font-size="15" fill="navy">6.75</text>
  <text x="15" y="160" font-size="15" fill="navy">6.3</text>
  <text x="15" y="210" font-size="15" fill="navy">5.85</text>
  <text x="15" y="260" font-size="15" fill="navy">5.4</text>
  <text x="15" y="310" font-size="15" fill="navy">4.95</text>
  <text x="15" y="360" font-size="15" fill="navy">4.5</text>
  <text x="15" y="410" font-size="15" fill="navy">4.05</text>
  <text x="15" y="460" font-size="15" fill="navy">3.6</text>
  <text x="15" y="510" font-size="15" fill="navy">3.15</text>
  <text x="15" y="560" font-size="15" fill="navy">2.7</text>
  <text x="15" y="610" font-size="15" fill="navy">2.25</text>
  <text x="15" y="660" font-size="15" fill="navy">1.8</text>
  <text x="15" y="710" font-size="15" fill="navy">1.35</text>
  <text x="15" y="760" font-size="15" fill="navy">0.9</text>
  <text x="15" y="810" font-size="15" fill="navy">0.45</text>
</g>
<g>
  <text x="70" y="870" font-size="15" fill="navy">0.225</text>
  <text x="120" y="870" font-size="15" fill="navy">0.45</text>
  <text x="170" y="870" font-size="15" fill="navy">0.675</text>
  <text x="230" y="870" font-size="15" fill="navy">0.9</text>
  <text x="270" y="870" font-size="15" fill="navy">1.125</text>
  <text x="320" y="870" font-size="15" fill="navy">1.35</text>
  <text x="370" y="870" font-size="15" fill="navy">1.575</text>
  <text x="430" y="870" font-size="15" fill="navy">1.8</text>
  <text x="470" y="870" font-size="15" fill="navy">2.025</text>
  <text x="520" y="870" font-size="15" fill="navy">2.25</text>
  <text x="570" y="870" font-size="15" fill="navy">2.475</text>
  <text x="630" y="870" font-size="15" fill="navy">2.7</text>
  <text x="670" y="870" font-size="15" fill="navy">2.925</text>
  <text x="720" y="870" font-size="15" fill="navy">3.15</text>
  <text x="770" y="870" font-size="15" fill="navy">3.375</text>
  <text x="830" y="870" font-size="15" fill="navy">3.6</text>
</g>
  <text  x="465" y="900" class="AxesLabel">U/V</text>
      <defs>
       <path d="M0 0 L0 -10" id="upHill" style="stroke:#ff0000;stroke-width:1.5;"/>
       <path d="M0 0 L10 0" id="rightHill" style="stroke:#ff0000;stroke-width:1.5;"/>
      </defs>
<g>
  <use x="50" y="55" xlink:href="#rightHill"/>
  <use x="50" y="105" xlink:href="#rightHill"/>
  <use x="50" y="155" xlink:href="#rightHill"/>
  <use x="50" y="205" xlink:href="#rightHill"/>
  <use x="50" y="255" xlink:href="#rightHill"/>
  <use x="50" y="305" xlink:href="#rightHill"/>
  <use x="50" y="355" xlink:href="#rightHill"/>
  <use x="50" y="405" xlink:href="#rightHill"/>
  <use x="50" y="455" xlink:href="#rightHill"/>
  <use x="50" y="505" xlink:href="#rightHill"/>
  <use x="50" y="555" xlink:href="#rightHill"/>
  <use x="50" y="605" xlink:href="#rightHill"/>
  <use x="50" y="655" xlink:href="#rightHill"/>
  <use x="50" y="705" xlink:href="#rightHill"/>
  <use x="50" y="755" xlink:href="#rightHill"/>
  <use x="50" y="805" xlink:href="#rightHill"/>
</g>
  <g transform="translate(790,0)">
  <use x="50" y="55" xlink:href="#rightHill"/>
  <use x="50" y="105" xlink:href="#rightHill"/>
  <use x="50" y="155" xlink:href="#rightHill"/>
  <use x="50" y="205" xlink:href="#rightHill"/>
  <use x="50" y="255" xlink:href="#rightHill"/>
  <use x="50" y="305" xlink:href="#rightHill"/>
  <use x="50" y="355" xlink:href="#rightHill"/>
  <use x="50" y="405" xlink:href="#rightHill"/>
  <use x="50" y="455" xlink:href="#rightHill"/>
  <use x="50" y="505" xlink:href="#rightHill"/>
  <use x="50" y="555" xlink:href="#rightHill"/>
  <use x="50" y="605" xlink:href="#rightHill"/>
  <use x="50" y="655" xlink:href="#rightHill"/>
  <use x="50" y="705" xlink:href="#rightHill"/>
  <use x="50" y="755" xlink:href="#rightHill"/>
  <use x="50" y="805" xlink:href="#rightHill"/>
</g>
  <g>
  <use x="90" xlink:href="#upHill" y="850"/>
  <use x="140" xlink:href="#upHill" y="850"/>
  <use x="190" xlink:href="#upHill" y="850"/>
  <use x="240" xlink:href="#upHill" y="850"/>
  <use x="290" xlink:href="#upHill" y="850"/>
  <use x="340" xlink:href="#upHill" y="850"/>
  <use x="390" xlink:href="#upHill" y="850"/>
  <use x="440" xlink:href="#upHill" y="850"/>
  <use x="490" xlink:href="#upHill" y="850"/>
  <use x="540" xlink:href="#upHill" y="850"/>
  <use x="590" xlink:href="#upHill" y="850"/>
  <use x="640" xlink:href="#upHill" y="850"/>
  <use x="690" xlink:href="#upHill" y="850"/>
  <use x="740" xlink:href="#upHill" y="850"/>
  <use x="790" xlink:href="#upHill" y="850"/>
  <use x="840" xlink:href="#upHill" y="850"/>
  </g>


</g>
</svg>